ISO-10303-21;
HEADER;
/* Generated by software containing ST-Developer
 * from STEP Tools, Inc. (www.steptools.com) 
 */

FILE_DESCRIPTION(
/* description */ (''),
/* implementation_level */ '2;1');

FILE_NAME(
/* name */ 'L Cap Extrusion.step',
/* time_stamp */ '2026-05-01T15:53:38+05:30',
/* author */ (''),
/* organization */ (''),
/* preprocessor_version */ 'ST-DEVELOPER v20.1',
/* originating_system */ 'Autodesk Translation Framework v15.8.0.0',
/* authorisation */ '');

FILE_SCHEMA (('AUTOMOTIVE_DESIGN { 1 0 10303 214 3 1 1 }'));
ENDSEC;

DATA;
#10=MECHANICAL_DESIGN_GEOMETRIC_PRESENTATION_REPRESENTATION('',(#17),#881);
#11=ITEM_DEFINED_TRANSFORMATION($,$,#521,#572);
#12=(
REPRESENTATION_RELATIONSHIP($,$,#892,#891)
REPRESENTATION_RELATIONSHIP_WITH_TRANSFORMATION(#11)
SHAPE_REPRESENTATION_RELATIONSHIP()
);
#13=CONTEXT_DEPENDENT_SHAPE_REPRESENTATION(#12,#890);
#14=NEXT_ASSEMBLY_USAGE_OCCURRENCE('L Cap Extrusion 120mm:1',
'L Cap Extrusion 120mm:1','L Cap Extrusion 120mm:1',#894,#895,
'L Cap Extrusion 120mm:1');
#15=SHAPE_REPRESENTATION_RELATIONSHIP('SRR','None',#892,#16);
#16=ADVANCED_BREP_SHAPE_REPRESENTATION('',(#18),#880);
#17=STYLED_ITEM('',(#906),#18);
#18=MANIFOLD_SOLID_BREP('Body1',#507);
#19=CYLINDRICAL_SURFACE('',#535,0.5);
#20=CYLINDRICAL_SURFACE('',#538,1.0000000000003);
#21=CYLINDRICAL_SURFACE('',#541,0.5);
#22=CYLINDRICAL_SURFACE('',#544,0.499999999999874);
#23=CYLINDRICAL_SURFACE('',#547,1.0000000000003);
#24=CYLINDRICAL_SURFACE('',#550,0.5);
#25=CYLINDRICAL_SURFACE('',#553,0.5);
#26=CYLINDRICAL_SURFACE('',#556,0.5);
#27=CYLINDRICAL_SURFACE('',#559,0.635);
#28=CYLINDRICAL_SURFACE('',#562,0.635);
#29=CYLINDRICAL_SURFACE('',#565,0.5);
#30=CYLINDRICAL_SURFACE('',#568,0.5);
#31=FACE_OUTER_BOUND('',#57,.T.);
#32=FACE_OUTER_BOUND('',#58,.T.);
#33=FACE_OUTER_BOUND('',#59,.T.);
#34=FACE_OUTER_BOUND('',#60,.T.);
#35=FACE_OUTER_BOUND('',#61,.T.);
#36=FACE_OUTER_BOUND('',#62,.T.);
#37=FACE_OUTER_BOUND('',#63,.T.);
#38=FACE_OUTER_BOUND('',#64,.T.);
#39=FACE_OUTER_BOUND('',#65,.T.);
#40=FACE_OUTER_BOUND('',#66,.T.);
#41=FACE_OUTER_BOUND('',#67,.T.);
#42=FACE_OUTER_BOUND('',#68,.T.);
#43=FACE_OUTER_BOUND('',#69,.T.);
#44=FACE_OUTER_BOUND('',#70,.T.);
#45=FACE_OUTER_BOUND('',#71,.T.);
#46=FACE_OUTER_BOUND('',#72,.T.);
#47=FACE_OUTER_BOUND('',#73,.T.);
#48=FACE_OUTER_BOUND('',#74,.T.);
#49=FACE_OUTER_BOUND('',#75,.T.);
#50=FACE_OUTER_BOUND('',#76,.T.);
#51=FACE_OUTER_BOUND('',#77,.T.);
#52=FACE_OUTER_BOUND('',#78,.T.);
#53=FACE_OUTER_BOUND('',#79,.T.);
#54=FACE_OUTER_BOUND('',#80,.T.);
#55=FACE_OUTER_BOUND('',#81,.T.);
#56=FACE_OUTER_BOUND('',#82,.T.);
#57=EDGE_LOOP('',(#323,#324,#325,#326,#327,#328,#329,#330,#331,#332,#333,
#334,#335,#336,#337,#338,#339,#340,#341,#342,#343,#344,#345,#346));
#58=EDGE_LOOP('',(#347,#348,#349,#350));
#59=EDGE_LOOP('',(#351,#352,#353,#354));
#60=EDGE_LOOP('',(#355,#356,#357,#358));
#61=EDGE_LOOP('',(#359,#360,#361,#362));
#62=EDGE_LOOP('',(#363,#364,#365,#366));
#63=EDGE_LOOP('',(#367,#368,#369,#370));
#64=EDGE_LOOP('',(#371,#372,#373,#374));
#65=EDGE_LOOP('',(#375,#376,#377,#378));
#66=EDGE_LOOP('',(#379,#380,#381,#382));
#67=EDGE_LOOP('',(#383,#384,#385,#386));
#68=EDGE_LOOP('',(#387,#388,#389,#390));
#69=EDGE_LOOP('',(#391,#392,#393,#394));
#70=EDGE_LOOP('',(#395,#396,#397,#398));
#71=EDGE_LOOP('',(#399,#400,#401,#402));
#72=EDGE_LOOP('',(#403,#404,#405,#406));
#73=EDGE_LOOP('',(#407,#408,#409,#410));
#74=EDGE_LOOP('',(#411,#412,#413,#414));
#75=EDGE_LOOP('',(#415,#416,#417,#418));
#76=EDGE_LOOP('',(#419,#420,#421,#422));
#77=EDGE_LOOP('',(#423,#424,#425,#426));
#78=EDGE_LOOP('',(#427,#428,#429,#430));
#79=EDGE_LOOP('',(#431,#432,#433,#434));
#80=EDGE_LOOP('',(#435,#436,#437,#438));
#81=EDGE_LOOP('',(#439,#440,#441,#442));
#82=EDGE_LOOP('',(#443,#444,#445,#446,#447,#448,#449,#450,#451,#452,#453,
#454,#455,#456,#457,#458,#459,#460,#461,#462,#463,#464,#465,#466));
#83=LINE('',#734,#131);
#84=LINE('',#738,#132);
#85=LINE('',#742,#133);
#86=LINE('',#746,#134);
#87=LINE('',#750,#135);
#88=LINE('',#754,#136);
#89=LINE('',#758,#137);
#90=LINE('',#762,#138);
#91=LINE('',#766,#139);
#92=LINE('',#770,#140);
#93=LINE('',#774,#141);
#94=LINE('',#777,#142);
#95=LINE('',#782,#143);
#96=LINE('',#783,#144);
#97=LINE('',#786,#145);
#98=LINE('',#787,#146);
#99=LINE('',#791,#147);
#100=LINE('',#794,#148);
#101=LINE('',#795,#149);
#102=LINE('',#799,#150);
#103=LINE('',#802,#151);
#104=LINE('',#803,#152);
#105=LINE('',#807,#153);
#106=LINE('',#810,#154);
#107=LINE('',#811,#155);
#108=LINE('',#815,#156);
#109=LINE('',#818,#157);
#110=LINE('',#819,#158);
#111=LINE('',#823,#159);
#112=LINE('',#826,#160);
#113=LINE('',#827,#161);
#114=LINE('',#831,#162);
#115=LINE('',#834,#163);
#116=LINE('',#835,#164);
#117=LINE('',#839,#165);
#118=LINE('',#842,#166);
#119=LINE('',#843,#167);
#120=LINE('',#847,#168);
#121=LINE('',#850,#169);
#122=LINE('',#851,#170);
#123=LINE('',#855,#171);
#124=LINE('',#858,#172);
#125=LINE('',#859,#173);
#126=LINE('',#863,#174);
#127=LINE('',#866,#175);
#128=LINE('',#867,#176);
#129=LINE('',#871,#177);
#130=LINE('',#873,#178);
#131=VECTOR('',#581,10.);
#132=VECTOR('',#584,10.);
#133=VECTOR('',#587,10.);
#134=VECTOR('',#590,10.);
#135=VECTOR('',#593,10.);
#136=VECTOR('',#596,10.);
#137=VECTOR('',#599,10.);
#138=VECTOR('',#602,10.);
#139=VECTOR('',#605,10.);
#140=VECTOR('',#608,10.);
#141=VECTOR('',#611,10.);
#142=VECTOR('',#614,10.);
#143=VECTOR('',#619,10.);
#144=VECTOR('',#620,10.);
#145=VECTOR('',#623,10.);
#146=VECTOR('',#624,10.);
#147=VECTOR('',#629,10.);
#148=VECTOR('',#632,10.);
#149=VECTOR('',#633,10.);
#150=VECTOR('',#638,10.);
#151=VECTOR('',#641,10.);
#152=VECTOR('',#642,10.);
#153=VECTOR('',#647,10.);
#154=VECTOR('',#650,10.);
#155=VECTOR('',#651,10.);
#156=VECTOR('',#656,10.);
#157=VECTOR('',#659,10.);
#158=VECTOR('',#660,10.);
#159=VECTOR('',#665,10.);
#160=VECTOR('',#668,10.);
#161=VECTOR('',#669,10.);
#162=VECTOR('',#674,10.);
#163=VECTOR('',#677,10.);
#164=VECTOR('',#678,10.);
#165=VECTOR('',#683,10.);
#166=VECTOR('',#686,10.);
#167=VECTOR('',#687,10.);
#168=VECTOR('',#692,10.);
#169=VECTOR('',#695,10.);
#170=VECTOR('',#696,10.);
#171=VECTOR('',#701,10.);
#172=VECTOR('',#704,10.);
#173=VECTOR('',#705,10.);
#174=VECTOR('',#710,10.);
#175=VECTOR('',#713,10.);
#176=VECTOR('',#714,10.);
#177=VECTOR('',#719,10.);
#178=VECTOR('',#722,10.);
#179=CIRCLE('',#523,0.5);
#180=CIRCLE('',#524,0.5);
#181=CIRCLE('',#525,1.0000000000003);
#182=CIRCLE('',#526,0.5);
#183=CIRCLE('',#527,0.499999999999874);
#184=CIRCLE('',#528,1.0000000000003);
#185=CIRCLE('',#529,0.5);
#186=CIRCLE('',#530,0.5);
#187=CIRCLE('',#531,0.5);
#188=CIRCLE('',#532,0.635);
#189=CIRCLE('',#533,0.635);
#190=CIRCLE('',#534,0.5);
#191=CIRCLE('',#536,0.5);
#192=CIRCLE('',#539,1.0000000000003);
#193=CIRCLE('',#542,0.5);
#194=CIRCLE('',#545,0.499999999999874);
#195=CIRCLE('',#548,1.0000000000003);
#196=CIRCLE('',#551,0.5);
#197=CIRCLE('',#554,0.5);
#198=CIRCLE('',#557,0.5);
#199=CIRCLE('',#560,0.635);
#200=CIRCLE('',#563,0.635);
#201=CIRCLE('',#566,0.5);
#202=CIRCLE('',#569,0.5);
#203=VERTEX_POINT('',#730);
#204=VERTEX_POINT('',#731);
#205=VERTEX_POINT('',#733);
#206=VERTEX_POINT('',#735);
#207=VERTEX_POINT('',#737);
#208=VERTEX_POINT('',#739);
#209=VERTEX_POINT('',#741);
#210=VERTEX_POINT('',#743);
#211=VERTEX_POINT('',#745);
#212=VERTEX_POINT('',#747);
#213=VERTEX_POINT('',#749);
#214=VERTEX_POINT('',#751);
#215=VERTEX_POINT('',#753);
#216=VERTEX_POINT('',#755);
#217=VERTEX_POINT('',#757);
#218=VERTEX_POINT('',#759);
#219=VERTEX_POINT('',#761);
#220=VERTEX_POINT('',#763);
#221=VERTEX_POINT('',#765);
#222=VERTEX_POINT('',#767);
#223=VERTEX_POINT('',#769);
#224=VERTEX_POINT('',#771);
#225=VERTEX_POINT('',#773);
#226=VERTEX_POINT('',#775);
#227=VERTEX_POINT('',#779);
#228=VERTEX_POINT('',#780);
#229=VERTEX_POINT('',#785);
#230=VERTEX_POINT('',#789);
#231=VERTEX_POINT('',#793);
#232=VERTEX_POINT('',#797);
#233=VERTEX_POINT('',#801);
#234=VERTEX_POINT('',#805);
#235=VERTEX_POINT('',#809);
#236=VERTEX_POINT('',#813);
#237=VERTEX_POINT('',#817);
#238=VERTEX_POINT('',#821);
#239=VERTEX_POINT('',#825);
#240=VERTEX_POINT('',#829);
#241=VERTEX_POINT('',#833);
#242=VERTEX_POINT('',#837);
#243=VERTEX_POINT('',#841);
#244=VERTEX_POINT('',#845);
#245=VERTEX_POINT('',#849);
#246=VERTEX_POINT('',#853);
#247=VERTEX_POINT('',#857);
#248=VERTEX_POINT('',#861);
#249=VERTEX_POINT('',#865);
#250=VERTEX_POINT('',#869);
#251=EDGE_CURVE('',#203,#204,#179,.T.);
#252=EDGE_CURVE('',#205,#203,#83,.T.);
#253=EDGE_CURVE('',#206,#205,#180,.T.);
#254=EDGE_CURVE('',#207,#206,#84,.T.);
#255=EDGE_CURVE('',#208,#207,#181,.T.);
#256=EDGE_CURVE('',#209,#208,#85,.T.);
#257=EDGE_CURVE('',#210,#209,#182,.T.);
#258=EDGE_CURVE('',#211,#210,#86,.T.);
#259=EDGE_CURVE('',#212,#211,#183,.T.);
#260=EDGE_CURVE('',#213,#212,#87,.T.);
#261=EDGE_CURVE('',#214,#213,#184,.T.);
#262=EDGE_CURVE('',#215,#214,#88,.T.);
#263=EDGE_CURVE('',#216,#215,#185,.T.);
#264=EDGE_CURVE('',#217,#216,#89,.T.);
#265=EDGE_CURVE('',#218,#217,#186,.T.);
#266=EDGE_CURVE('',#219,#218,#90,.T.);
#267=EDGE_CURVE('',#220,#219,#187,.T.);
#268=EDGE_CURVE('',#221,#220,#91,.T.);
#269=EDGE_CURVE('',#222,#221,#188,.T.);
#270=EDGE_CURVE('',#223,#222,#92,.T.);
#271=EDGE_CURVE('',#224,#223,#189,.T.);
#272=EDGE_CURVE('',#225,#224,#93,.T.);
#273=EDGE_CURVE('',#226,#225,#190,.T.);
#274=EDGE_CURVE('',#204,#226,#94,.T.);
#275=EDGE_CURVE('',#227,#228,#191,.T.);
#276=EDGE_CURVE('',#228,#206,#95,.T.);
#277=EDGE_CURVE('',#227,#205,#96,.T.);
#278=EDGE_CURVE('',#228,#229,#97,.T.);
#279=EDGE_CURVE('',#229,#207,#98,.T.);
#280=EDGE_CURVE('',#229,#230,#192,.T.);
#281=EDGE_CURVE('',#230,#208,#99,.T.);
#282=EDGE_CURVE('',#230,#231,#100,.T.);
#283=EDGE_CURVE('',#231,#209,#101,.T.);
#284=EDGE_CURVE('',#231,#232,#193,.T.);
#285=EDGE_CURVE('',#232,#210,#102,.T.);
#286=EDGE_CURVE('',#232,#233,#103,.T.);
#287=EDGE_CURVE('',#233,#211,#104,.T.);
#288=EDGE_CURVE('',#233,#234,#194,.T.);
#289=EDGE_CURVE('',#234,#212,#105,.T.);
#290=EDGE_CURVE('',#234,#235,#106,.T.);
#291=EDGE_CURVE('',#235,#213,#107,.T.);
#292=EDGE_CURVE('',#235,#236,#195,.T.);
#293=EDGE_CURVE('',#236,#214,#108,.T.);
#294=EDGE_CURVE('',#236,#237,#109,.T.);
#295=EDGE_CURVE('',#237,#215,#110,.T.);
#296=EDGE_CURVE('',#237,#238,#196,.T.);
#297=EDGE_CURVE('',#238,#216,#111,.T.);
#298=EDGE_CURVE('',#238,#239,#112,.T.);
#299=EDGE_CURVE('',#239,#217,#113,.T.);
#300=EDGE_CURVE('',#239,#240,#197,.T.);
#301=EDGE_CURVE('',#240,#218,#114,.T.);
#302=EDGE_CURVE('',#240,#241,#115,.T.);
#303=EDGE_CURVE('',#241,#219,#116,.T.);
#304=EDGE_CURVE('',#241,#242,#198,.T.);
#305=EDGE_CURVE('',#242,#220,#117,.T.);
#306=EDGE_CURVE('',#242,#243,#118,.T.);
#307=EDGE_CURVE('',#243,#221,#119,.T.);
#308=EDGE_CURVE('',#243,#244,#199,.T.);
#309=EDGE_CURVE('',#244,#222,#120,.T.);
#310=EDGE_CURVE('',#244,#245,#121,.T.);
#311=EDGE_CURVE('',#245,#223,#122,.T.);
#312=EDGE_CURVE('',#245,#246,#200,.T.);
#313=EDGE_CURVE('',#246,#224,#123,.T.);
#314=EDGE_CURVE('',#246,#247,#124,.T.);
#315=EDGE_CURVE('',#247,#225,#125,.T.);
#316=EDGE_CURVE('',#247,#248,#201,.T.);
#317=EDGE_CURVE('',#248,#226,#126,.T.);
#318=EDGE_CURVE('',#248,#249,#127,.T.);
#319=EDGE_CURVE('',#249,#204,#128,.T.);
#320=EDGE_CURVE('',#249,#250,#202,.T.);
#321=EDGE_CURVE('',#203,#250,#129,.T.);
#322=EDGE_CURVE('',#250,#227,#130,.T.);
#323=ORIENTED_EDGE('',*,*,#251,.F.);
#324=ORIENTED_EDGE('',*,*,#252,.F.);
#325=ORIENTED_EDGE('',*,*,#253,.F.);
#326=ORIENTED_EDGE('',*,*,#254,.F.);
#327=ORIENTED_EDGE('',*,*,#255,.F.);
#328=ORIENTED_EDGE('',*,*,#256,.F.);
#329=ORIENTED_EDGE('',*,*,#257,.F.);
#330=ORIENTED_EDGE('',*,*,#258,.F.);
#331=ORIENTED_EDGE('',*,*,#259,.F.);
#332=ORIENTED_EDGE('',*,*,#260,.F.);
#333=ORIENTED_EDGE('',*,*,#261,.F.);
#334=ORIENTED_EDGE('',*,*,#262,.F.);
#335=ORIENTED_EDGE('',*,*,#263,.F.);
#336=ORIENTED_EDGE('',*,*,#264,.F.);
#337=ORIENTED_EDGE('',*,*,#265,.F.);
#338=ORIENTED_EDGE('',*,*,#266,.F.);
#339=ORIENTED_EDGE('',*,*,#267,.F.);
#340=ORIENTED_EDGE('',*,*,#268,.F.);
#341=ORIENTED_EDGE('',*,*,#269,.F.);
#342=ORIENTED_EDGE('',*,*,#270,.F.);
#343=ORIENTED_EDGE('',*,*,#271,.F.);
#344=ORIENTED_EDGE('',*,*,#272,.F.);
#345=ORIENTED_EDGE('',*,*,#273,.F.);
#346=ORIENTED_EDGE('',*,*,#274,.F.);
#347=ORIENTED_EDGE('',*,*,#275,.T.);
#348=ORIENTED_EDGE('',*,*,#276,.T.);
#349=ORIENTED_EDGE('',*,*,#253,.T.);
#350=ORIENTED_EDGE('',*,*,#277,.F.);
#351=ORIENTED_EDGE('',*,*,#278,.T.);
#352=ORIENTED_EDGE('',*,*,#279,.T.);
#353=ORIENTED_EDGE('',*,*,#254,.T.);
#354=ORIENTED_EDGE('',*,*,#276,.F.);
#355=ORIENTED_EDGE('',*,*,#280,.T.);
#356=ORIENTED_EDGE('',*,*,#281,.T.);
#357=ORIENTED_EDGE('',*,*,#255,.T.);
#358=ORIENTED_EDGE('',*,*,#279,.F.);
#359=ORIENTED_EDGE('',*,*,#282,.T.);
#360=ORIENTED_EDGE('',*,*,#283,.T.);
#361=ORIENTED_EDGE('',*,*,#256,.T.);
#362=ORIENTED_EDGE('',*,*,#281,.F.);
#363=ORIENTED_EDGE('',*,*,#284,.T.);
#364=ORIENTED_EDGE('',*,*,#285,.T.);
#365=ORIENTED_EDGE('',*,*,#257,.T.);
#366=ORIENTED_EDGE('',*,*,#283,.F.);
#367=ORIENTED_EDGE('',*,*,#286,.T.);
#368=ORIENTED_EDGE('',*,*,#287,.T.);
#369=ORIENTED_EDGE('',*,*,#258,.T.);
#370=ORIENTED_EDGE('',*,*,#285,.F.);
#371=ORIENTED_EDGE('',*,*,#288,.T.);
#372=ORIENTED_EDGE('',*,*,#289,.T.);
#373=ORIENTED_EDGE('',*,*,#259,.T.);
#374=ORIENTED_EDGE('',*,*,#287,.F.);
#375=ORIENTED_EDGE('',*,*,#290,.T.);
#376=ORIENTED_EDGE('',*,*,#291,.T.);
#377=ORIENTED_EDGE('',*,*,#260,.T.);
#378=ORIENTED_EDGE('',*,*,#289,.F.);
#379=ORIENTED_EDGE('',*,*,#292,.T.);
#380=ORIENTED_EDGE('',*,*,#293,.T.);
#381=ORIENTED_EDGE('',*,*,#261,.T.);
#382=ORIENTED_EDGE('',*,*,#291,.F.);
#383=ORIENTED_EDGE('',*,*,#294,.T.);
#384=ORIENTED_EDGE('',*,*,#295,.T.);
#385=ORIENTED_EDGE('',*,*,#262,.T.);
#386=ORIENTED_EDGE('',*,*,#293,.F.);
#387=ORIENTED_EDGE('',*,*,#296,.T.);
#388=ORIENTED_EDGE('',*,*,#297,.T.);
#389=ORIENTED_EDGE('',*,*,#263,.T.);
#390=ORIENTED_EDGE('',*,*,#295,.F.);
#391=ORIENTED_EDGE('',*,*,#298,.T.);
#392=ORIENTED_EDGE('',*,*,#299,.T.);
#393=ORIENTED_EDGE('',*,*,#264,.T.);
#394=ORIENTED_EDGE('',*,*,#297,.F.);
#395=ORIENTED_EDGE('',*,*,#300,.T.);
#396=ORIENTED_EDGE('',*,*,#301,.T.);
#397=ORIENTED_EDGE('',*,*,#265,.T.);
#398=ORIENTED_EDGE('',*,*,#299,.F.);
#399=ORIENTED_EDGE('',*,*,#302,.T.);
#400=ORIENTED_EDGE('',*,*,#303,.T.);
#401=ORIENTED_EDGE('',*,*,#266,.T.);
#402=ORIENTED_EDGE('',*,*,#301,.F.);
#403=ORIENTED_EDGE('',*,*,#304,.T.);
#404=ORIENTED_EDGE('',*,*,#305,.T.);
#405=ORIENTED_EDGE('',*,*,#267,.T.);
#406=ORIENTED_EDGE('',*,*,#303,.F.);
#407=ORIENTED_EDGE('',*,*,#306,.T.);
#408=ORIENTED_EDGE('',*,*,#307,.T.);
#409=ORIENTED_EDGE('',*,*,#268,.T.);
#410=ORIENTED_EDGE('',*,*,#305,.F.);
#411=ORIENTED_EDGE('',*,*,#308,.T.);
#412=ORIENTED_EDGE('',*,*,#309,.T.);
#413=ORIENTED_EDGE('',*,*,#269,.T.);
#414=ORIENTED_EDGE('',*,*,#307,.F.);
#415=ORIENTED_EDGE('',*,*,#310,.T.);
#416=ORIENTED_EDGE('',*,*,#311,.T.);
#417=ORIENTED_EDGE('',*,*,#270,.T.);
#418=ORIENTED_EDGE('',*,*,#309,.F.);
#419=ORIENTED_EDGE('',*,*,#312,.T.);
#420=ORIENTED_EDGE('',*,*,#313,.T.);
#421=ORIENTED_EDGE('',*,*,#271,.T.);
#422=ORIENTED_EDGE('',*,*,#311,.F.);
#423=ORIENTED_EDGE('',*,*,#314,.T.);
#424=ORIENTED_EDGE('',*,*,#315,.T.);
#425=ORIENTED_EDGE('',*,*,#272,.T.);
#426=ORIENTED_EDGE('',*,*,#313,.F.);
#427=ORIENTED_EDGE('',*,*,#316,.T.);
#428=ORIENTED_EDGE('',*,*,#317,.T.);
#429=ORIENTED_EDGE('',*,*,#273,.T.);
#430=ORIENTED_EDGE('',*,*,#315,.F.);
#431=ORIENTED_EDGE('',*,*,#318,.T.);
#432=ORIENTED_EDGE('',*,*,#319,.T.);
#433=ORIENTED_EDGE('',*,*,#274,.T.);
#434=ORIENTED_EDGE('',*,*,#317,.F.);
#435=ORIENTED_EDGE('',*,*,#320,.T.);
#436=ORIENTED_EDGE('',*,*,#321,.F.);
#437=ORIENTED_EDGE('',*,*,#251,.T.);
#438=ORIENTED_EDGE('',*,*,#319,.F.);
#439=ORIENTED_EDGE('',*,*,#322,.T.);
#440=ORIENTED_EDGE('',*,*,#277,.T.);
#441=ORIENTED_EDGE('',*,*,#252,.T.);
#442=ORIENTED_EDGE('',*,*,#321,.T.);
#443=ORIENTED_EDGE('',*,*,#275,.F.);
#444=ORIENTED_EDGE('',*,*,#322,.F.);
#445=ORIENTED_EDGE('',*,*,#320,.F.);
#446=ORIENTED_EDGE('',*,*,#318,.F.);
#447=ORIENTED_EDGE('',*,*,#316,.F.);
#448=ORIENTED_EDGE('',*,*,#314,.F.);
#449=ORIENTED_EDGE('',*,*,#312,.F.);
#450=ORIENTED_EDGE('',*,*,#310,.F.);
#451=ORIENTED_EDGE('',*,*,#308,.F.);
#452=ORIENTED_EDGE('',*,*,#306,.F.);
#453=ORIENTED_EDGE('',*,*,#304,.F.);
#454=ORIENTED_EDGE('',*,*,#302,.F.);
#455=ORIENTED_EDGE('',*,*,#300,.F.);
#456=ORIENTED_EDGE('',*,*,#298,.F.);
#457=ORIENTED_EDGE('',*,*,#296,.F.);
#458=ORIENTED_EDGE('',*,*,#294,.F.);
#459=ORIENTED_EDGE('',*,*,#292,.F.);
#460=ORIENTED_EDGE('',*,*,#290,.F.);
#461=ORIENTED_EDGE('',*,*,#288,.F.);
#462=ORIENTED_EDGE('',*,*,#286,.F.);
#463=ORIENTED_EDGE('',*,*,#284,.F.);
#464=ORIENTED_EDGE('',*,*,#282,.F.);
#465=ORIENTED_EDGE('',*,*,#280,.F.);
#466=ORIENTED_EDGE('',*,*,#278,.F.);
#467=PLANE('',#522);
#468=PLANE('',#537);
#469=PLANE('',#540);
#470=PLANE('',#543);
#471=PLANE('',#546);
#472=PLANE('',#549);
#473=PLANE('',#552);
#474=PLANE('',#555);
#475=PLANE('',#558);
#476=PLANE('',#561);
#477=PLANE('',#564);
#478=PLANE('',#567);
#479=PLANE('',#570);
#480=PLANE('',#571);
#481=ADVANCED_FACE('',(#31),#467,.F.);
#482=ADVANCED_FACE('',(#32),#19,.T.);
#483=ADVANCED_FACE('',(#33),#468,.T.);
#484=ADVANCED_FACE('',(#34),#20,.T.);
#485=ADVANCED_FACE('',(#35),#469,.T.);
#486=ADVANCED_FACE('',(#36),#21,.F.);
#487=ADVANCED_FACE('',(#37),#470,.T.);
#488=ADVANCED_FACE('',(#38),#22,.F.);
#489=ADVANCED_FACE('',(#39),#471,.T.);
#490=ADVANCED_FACE('',(#40),#23,.T.);
#491=ADVANCED_FACE('',(#41),#472,.T.);
#492=ADVANCED_FACE('',(#42),#24,.T.);
#493=ADVANCED_FACE('',(#43),#473,.T.);
#494=ADVANCED_FACE('',(#44),#25,.T.);
#495=ADVANCED_FACE('',(#45),#474,.T.);
#496=ADVANCED_FACE('',(#46),#26,.F.);
#497=ADVANCED_FACE('',(#47),#475,.T.);
#498=ADVANCED_FACE('',(#48),#27,.F.);
#499=ADVANCED_FACE('',(#49),#476,.T.);
#500=ADVANCED_FACE('',(#50),#28,.F.);
#501=ADVANCED_FACE('',(#51),#477,.T.);
#502=ADVANCED_FACE('',(#52),#29,.F.);
#503=ADVANCED_FACE('',(#53),#478,.T.);
#504=ADVANCED_FACE('',(#54),#30,.T.);
#505=ADVANCED_FACE('',(#55),#479,.T.);
#506=ADVANCED_FACE('',(#56),#480,.T.);
#507=CLOSED_SHELL('',(#481,#482,#483,#484,#485,#486,#487,#488,#489,#490,
#491,#492,#493,#494,#495,#496,#497,#498,#499,#500,#501,#502,#503,#504,#505,
#506));
#508=DERIVED_UNIT_ELEMENT(#510,1.);
#509=DERIVED_UNIT_ELEMENT(#883,-3.);
#510=(
MASS_UNIT()
NAMED_UNIT(*)
SI_UNIT(.KILO.,.GRAM.)
);
#511=DERIVED_UNIT((#508,#509));
#512=MEASURE_REPRESENTATION_ITEM('density measure',
POSITIVE_RATIO_MEASURE(1000.),#511);
#513=PROPERTY_DEFINITION_REPRESENTATION(#518,#515);
#514=PROPERTY_DEFINITION_REPRESENTATION(#519,#516);
#515=REPRESENTATION('material name',(#517),#880);
#516=REPRESENTATION('density',(#512),#880);
#517=DESCRIPTIVE_REPRESENTATION_ITEM('Generic','Generic');
#518=PROPERTY_DEFINITION('material property','material name',#895);
#519=PROPERTY_DEFINITION('material property','density of part',#895);
#520=AXIS2_PLACEMENT_3D('',#727,#573,#574);
#521=AXIS2_PLACEMENT_3D('',#728,#575,#576);
#522=AXIS2_PLACEMENT_3D('',#729,#577,#578);
#523=AXIS2_PLACEMENT_3D('',#732,#579,#580);
#524=AXIS2_PLACEMENT_3D('',#736,#582,#583);
#525=AXIS2_PLACEMENT_3D('',#740,#585,#586);
#526=AXIS2_PLACEMENT_3D('',#744,#588,#589);
#527=AXIS2_PLACEMENT_3D('',#748,#591,#592);
#528=AXIS2_PLACEMENT_3D('',#752,#594,#595);
#529=AXIS2_PLACEMENT_3D('',#756,#597,#598);
#530=AXIS2_PLACEMENT_3D('',#760,#600,#601);
#531=AXIS2_PLACEMENT_3D('',#764,#603,#604);
#532=AXIS2_PLACEMENT_3D('',#768,#606,#607);
#533=AXIS2_PLACEMENT_3D('',#772,#609,#610);
#534=AXIS2_PLACEMENT_3D('',#776,#612,#613);
#535=AXIS2_PLACEMENT_3D('',#778,#615,#616);
#536=AXIS2_PLACEMENT_3D('',#781,#617,#618);
#537=AXIS2_PLACEMENT_3D('',#784,#621,#622);
#538=AXIS2_PLACEMENT_3D('',#788,#625,#626);
#539=AXIS2_PLACEMENT_3D('',#790,#627,#628);
#540=AXIS2_PLACEMENT_3D('',#792,#630,#631);
#541=AXIS2_PLACEMENT_3D('',#796,#634,#635);
#542=AXIS2_PLACEMENT_3D('',#798,#636,#637);
#543=AXIS2_PLACEMENT_3D('',#800,#639,#640);
#544=AXIS2_PLACEMENT_3D('',#804,#643,#644);
#545=AXIS2_PLACEMENT_3D('',#806,#645,#646);
#546=AXIS2_PLACEMENT_3D('',#808,#648,#649);
#547=AXIS2_PLACEMENT_3D('',#812,#652,#653);
#548=AXIS2_PLACEMENT_3D('',#814,#654,#655);
#549=AXIS2_PLACEMENT_3D('',#816,#657,#658);
#550=AXIS2_PLACEMENT_3D('',#820,#661,#662);
#551=AXIS2_PLACEMENT_3D('',#822,#663,#664);
#552=AXIS2_PLACEMENT_3D('',#824,#666,#667);
#553=AXIS2_PLACEMENT_3D('',#828,#670,#671);
#554=AXIS2_PLACEMENT_3D('',#830,#672,#673);
#555=AXIS2_PLACEMENT_3D('',#832,#675,#676);
#556=AXIS2_PLACEMENT_3D('',#836,#679,#680);
#557=AXIS2_PLACEMENT_3D('',#838,#681,#682);
#558=AXIS2_PLACEMENT_3D('',#840,#684,#685);
#559=AXIS2_PLACEMENT_3D('',#844,#688,#689);
#560=AXIS2_PLACEMENT_3D('',#846,#690,#691);
#561=AXIS2_PLACEMENT_3D('',#848,#693,#694);
#562=AXIS2_PLACEMENT_3D('',#852,#697,#698);
#563=AXIS2_PLACEMENT_3D('',#854,#699,#700);
#564=AXIS2_PLACEMENT_3D('',#856,#702,#703);
#565=AXIS2_PLACEMENT_3D('',#860,#706,#707);
#566=AXIS2_PLACEMENT_3D('',#862,#708,#709);
#567=AXIS2_PLACEMENT_3D('',#864,#711,#712);
#568=AXIS2_PLACEMENT_3D('',#868,#715,#716);
#569=AXIS2_PLACEMENT_3D('',#870,#717,#718);
#570=AXIS2_PLACEMENT_3D('',#872,#720,#721);
#571=AXIS2_PLACEMENT_3D('',#874,#723,#724);
#572=AXIS2_PLACEMENT_3D('',#875,#725,#726);
#573=DIRECTION('axis',(0.,0.,1.));
#574=DIRECTION('refdir',(1.,0.,0.));
#575=DIRECTION('axis',(0.,0.,1.));
#576=DIRECTION('refdir',(1.,0.,0.));
#577=DIRECTION('center_axis',(0.,0.,1.));
#578=DIRECTION('ref_axis',(1.,0.,0.));
#579=DIRECTION('center_axis',(0.,0.,1.));
#580=DIRECTION('ref_axis',(1.,0.,0.));
#581=DIRECTION('',(-1.78134460429227E-14,-1.,0.));
#582=DIRECTION('center_axis',(0.,0.,1.));
#583=DIRECTION('ref_axis',(0.,-1.,0.));
#584=DIRECTION('',(-1.,2.41352831440283E-16,0.));
#585=DIRECTION('center_axis',(0.,0.,1.));
#586=DIRECTION('ref_axis',(-1.,0.,0.));
#587=DIRECTION('',(8.3365723643737E-15,1.,0.));
#588=DIRECTION('center_axis',(0.,0.,-1.));
#589=DIRECTION('ref_axis',(-1.,0.,0.));
#590=DIRECTION('',(-1.,0.,0.));
#591=DIRECTION('center_axis',(0.,0.,-1.));
#592=DIRECTION('ref_axis',(0.,-1.,0.));
#593=DIRECTION('',(-8.33657236437368E-15,-1.,0.));
#594=DIRECTION('center_axis',(0.,0.,1.));
#595=DIRECTION('ref_axis',(0.,-1.,0.));
#596=DIRECTION('',(-1.,-4.82705662880565E-16,0.));
#597=DIRECTION('center_axis',(0.,0.,1.));
#598=DIRECTION('ref_axis',(-1.,0.,0.));
#599=DIRECTION('',(0.,1.,0.));
#600=DIRECTION('center_axis',(0.,0.,1.));
#601=DIRECTION('ref_axis',(0.,1.,0.));
#602=DIRECTION('',(1.,-4.27469207078838E-16,0.));
#603=DIRECTION('center_axis',(0.,0.,-1.));
#604=DIRECTION('ref_axis',(0.,1.,0.));
#605=DIRECTION('',(0.,1.,0.));
#606=DIRECTION('center_axis',(0.,0.,-1.));
#607=DIRECTION('ref_axis',(0.,1.,0.));
#608=DIRECTION('',(1.,1.83697019872103E-16,0.));
#609=DIRECTION('center_axis',(0.,0.,-1.));
#610=DIRECTION('ref_axis',(1.,0.,0.));
#611=DIRECTION('',(0.,-1.,0.));
#612=DIRECTION('center_axis',(0.,0.,-1.));
#613=DIRECTION('ref_axis',(1.,0.,0.));
#614=DIRECTION('',(1.,4.26549494630843E-16,0.));
#615=DIRECTION('center_axis',(0.,0.,1.));
#616=DIRECTION('ref_axis',(0.,-1.,0.));
#617=DIRECTION('center_axis',(0.,0.,-1.));
#618=DIRECTION('ref_axis',(0.,-1.,0.));
#619=DIRECTION('',(0.,0.,-1.));
#620=DIRECTION('',(0.,0.,-1.));
#621=DIRECTION('center_axis',(2.41352831440283E-16,1.,0.));
#622=DIRECTION('ref_axis',(0.,0.,1.));
#623=DIRECTION('',(1.,-2.41352831440283E-16,0.));
#624=DIRECTION('',(0.,0.,-1.));
#625=DIRECTION('center_axis',(0.,0.,1.));
#626=DIRECTION('ref_axis',(-1.,0.,0.));
#627=DIRECTION('center_axis',(0.,0.,-1.));
#628=DIRECTION('ref_axis',(-1.,0.,0.));
#629=DIRECTION('',(0.,0.,-1.));
#630=DIRECTION('center_axis',(1.,-8.3365723643737E-15,0.));
#631=DIRECTION('ref_axis',(0.,0.,-1.));
#632=DIRECTION('',(-8.3365723643737E-15,-1.,0.));
#633=DIRECTION('',(0.,0.,-1.));
#634=DIRECTION('center_axis',(0.,0.,1.));
#635=DIRECTION('ref_axis',(-1.,0.,0.));
#636=DIRECTION('center_axis',(0.,0.,1.));
#637=DIRECTION('ref_axis',(-1.,0.,0.));
#638=DIRECTION('',(0.,0.,-1.));
#639=DIRECTION('center_axis',(0.,1.,0.));
#640=DIRECTION('ref_axis',(0.,0.,1.));
#641=DIRECTION('',(1.,0.,0.));
#642=DIRECTION('',(0.,0.,-1.));
#643=DIRECTION('center_axis',(0.,0.,1.));
#644=DIRECTION('ref_axis',(0.,-1.,0.));
#645=DIRECTION('center_axis',(0.,0.,1.));
#646=DIRECTION('ref_axis',(0.,-1.,0.));
#647=DIRECTION('',(0.,0.,-1.));
#648=DIRECTION('center_axis',(-1.,8.33657236437368E-15,0.));
#649=DIRECTION('ref_axis',(0.,0.,1.));
#650=DIRECTION('',(8.33657236437368E-15,1.,0.));
#651=DIRECTION('',(0.,0.,-1.));
#652=DIRECTION('center_axis',(0.,0.,1.));
#653=DIRECTION('ref_axis',(0.,-1.,0.));
#654=DIRECTION('center_axis',(0.,0.,-1.));
#655=DIRECTION('ref_axis',(0.,-1.,0.));
#656=DIRECTION('',(0.,0.,-1.));
#657=DIRECTION('center_axis',(-4.82705662880565E-16,1.,0.));
#658=DIRECTION('ref_axis',(0.,0.,1.));
#659=DIRECTION('',(1.,4.82705662880565E-16,0.));
#660=DIRECTION('',(0.,0.,-1.));
#661=DIRECTION('center_axis',(0.,0.,1.));
#662=DIRECTION('ref_axis',(-1.,0.,0.));
#663=DIRECTION('center_axis',(0.,0.,-1.));
#664=DIRECTION('ref_axis',(-1.,0.,0.));
#665=DIRECTION('',(0.,0.,-1.));
#666=DIRECTION('center_axis',(1.,0.,0.));
#667=DIRECTION('ref_axis',(0.,0.,-1.));
#668=DIRECTION('',(0.,-1.,0.));
#669=DIRECTION('',(0.,0.,-1.));
#670=DIRECTION('center_axis',(0.,0.,1.));
#671=DIRECTION('ref_axis',(0.,1.,0.));
#672=DIRECTION('center_axis',(0.,0.,-1.));
#673=DIRECTION('ref_axis',(0.,1.,0.));
#674=DIRECTION('',(0.,0.,-1.));
#675=DIRECTION('center_axis',(-4.27469207078838E-16,-1.,0.));
#676=DIRECTION('ref_axis',(0.,0.,-1.));
#677=DIRECTION('',(-1.,4.27469207078838E-16,0.));
#678=DIRECTION('',(0.,0.,-1.));
#679=DIRECTION('center_axis',(0.,0.,1.));
#680=DIRECTION('ref_axis',(0.,1.,0.));
#681=DIRECTION('center_axis',(0.,0.,1.));
#682=DIRECTION('ref_axis',(0.,1.,0.));
#683=DIRECTION('',(0.,0.,-1.));
#684=DIRECTION('center_axis',(1.,0.,0.));
#685=DIRECTION('ref_axis',(0.,0.,-1.));
#686=DIRECTION('',(0.,-1.,0.));
#687=DIRECTION('',(0.,0.,-1.));
#688=DIRECTION('center_axis',(0.,0.,1.));
#689=DIRECTION('ref_axis',(0.,1.,0.));
#690=DIRECTION('center_axis',(0.,0.,1.));
#691=DIRECTION('ref_axis',(0.,1.,0.));
#692=DIRECTION('',(0.,0.,-1.));
#693=DIRECTION('center_axis',(1.83697019872103E-16,-1.,0.));
#694=DIRECTION('ref_axis',(0.,0.,-1.));
#695=DIRECTION('',(-1.,-1.83697019872103E-16,0.));
#696=DIRECTION('',(0.,0.,-1.));
#697=DIRECTION('center_axis',(0.,0.,1.));
#698=DIRECTION('ref_axis',(1.,0.,0.));
#699=DIRECTION('center_axis',(0.,0.,1.));
#700=DIRECTION('ref_axis',(1.,0.,0.));
#701=DIRECTION('',(0.,0.,-1.));
#702=DIRECTION('center_axis',(-1.,0.,0.));
#703=DIRECTION('ref_axis',(0.,0.,1.));
#704=DIRECTION('',(0.,1.,0.));
#705=DIRECTION('',(0.,0.,-1.));
#706=DIRECTION('center_axis',(0.,0.,1.));
#707=DIRECTION('ref_axis',(1.,0.,0.));
#708=DIRECTION('center_axis',(0.,0.,1.));
#709=DIRECTION('ref_axis',(1.,0.,0.));
#710=DIRECTION('',(0.,0.,-1.));
#711=DIRECTION('center_axis',(4.26549494630843E-16,-1.,0.));
#712=DIRECTION('ref_axis',(0.,0.,-1.));
#713=DIRECTION('',(-1.,-4.26549494630843E-16,0.));
#714=DIRECTION('',(0.,0.,-1.));
#715=DIRECTION('center_axis',(0.,0.,1.));
#716=DIRECTION('ref_axis',(1.,0.,0.));
#717=DIRECTION('center_axis',(0.,0.,-1.));
#718=DIRECTION('ref_axis',(1.,0.,0.));
#719=DIRECTION('',(0.,0.,1.));
#720=DIRECTION('center_axis',(-1.,1.78134460429227E-14,0.));
#721=DIRECTION('ref_axis',(0.,0.,1.));
#722=DIRECTION('',(1.78134460429227E-14,1.,0.));
#723=DIRECTION('center_axis',(0.,0.,1.));
#724=DIRECTION('ref_axis',(1.,0.,0.));
#725=DIRECTION('',(-2.78280057217654E-15,3.37283225821649E-32,-1.));
#726=DIRECTION('',(-1.,6.62664367823139E-16,2.78280057217654E-15));
#727=CARTESIAN_POINT('',(0.,0.,0.));
#728=CARTESIAN_POINT('',(0.,0.,0.));
#729=CARTESIAN_POINT('Origin',(-0.00136784532047587,1.07229975519263,-60.));
#730=CARTESIAN_POINT('',(-45.9514,3.2178,-60.));
#731=CARTESIAN_POINT('',(-45.4514,2.7178,-60.));
#732=CARTESIAN_POINT('Origin',(-45.4514,3.2178,-60.));
#733=CARTESIAN_POINT('',(-45.9514,3.7164,-60.));
#734=CARTESIAN_POINT('',(-45.9514,3.2178,-60.));
#735=CARTESIAN_POINT('',(-45.4514,4.2164,-60.));
#736=CARTESIAN_POINT('Origin',(-45.4514,3.7164,-60.));
#737=CARTESIAN_POINT('',(-43.1514000000003,4.2164,-60.));
#738=CARTESIAN_POINT('',(-45.4514,4.2164,-60.));
#739=CARTESIAN_POINT('',(-42.1514,3.2163999999997,-60.));
#740=CARTESIAN_POINT('Origin',(-43.1514000000003,3.2163999999997,-60.));
#741=CARTESIAN_POINT('',(-42.1514,2.151,-60.));
#742=CARTESIAN_POINT('',(-42.1514,3.2163999999997,-60.));
#743=CARTESIAN_POINT('',(-41.6514,1.651,-60.));
#744=CARTESIAN_POINT('Origin',(-41.6514,2.151,-60.));
#745=CARTESIAN_POINT('',(41.6486,1.651,-60.));
#746=CARTESIAN_POINT('',(-41.6514,1.651,-60.));
#747=CARTESIAN_POINT('',(42.1486,2.151,-60.));
#748=CARTESIAN_POINT('Origin',(41.6486,2.151,-60.));
#749=CARTESIAN_POINT('',(42.1486,3.2163999999997,-60.));
#750=CARTESIAN_POINT('',(42.1486,2.151,-60.));
#751=CARTESIAN_POINT('',(43.1486000000003,4.2164,-60.));
#752=CARTESIAN_POINT('Origin',(43.1486000000003,3.2163999999997,-60.));
#753=CARTESIAN_POINT('',(45.4486,4.2164,-60.));
#754=CARTESIAN_POINT('',(43.1486000000003,4.2164,-60.));
#755=CARTESIAN_POINT('',(45.9486,3.7164,-60.));
#756=CARTESIAN_POINT('Origin',(45.4486,3.7164,-60.));
#757=CARTESIAN_POINT('',(45.9486,3.2178,-60.));
#758=CARTESIAN_POINT('',(45.9486,3.7164,-60.));
#759=CARTESIAN_POINT('',(45.4486,2.7178,-60.));
#760=CARTESIAN_POINT('Origin',(45.4486,3.2178,-60.));
#761=CARTESIAN_POINT('',(44.15,2.7178,-60.));
#762=CARTESIAN_POINT('',(45.4486,2.7178,-60.));
#763=CARTESIAN_POINT('',(43.65,2.2178,-60.));
#764=CARTESIAN_POINT('Origin',(44.15,2.2178,-60.));
#765=CARTESIAN_POINT('',(43.65,0.635,-60.));
#766=CARTESIAN_POINT('',(43.65,2.2178,-60.));
#767=CARTESIAN_POINT('',(43.015,1.5803454619597E-14,-60.));
#768=CARTESIAN_POINT('Origin',(43.65,1.83568701867572E-48,-60.));
#769=CARTESIAN_POINT('',(-43.015,1.83568701867572E-48,-60.));
#770=CARTESIAN_POINT('',(43.015,1.5803454619597E-14,-60.));
#771=CARTESIAN_POINT('',(-43.65,0.635,-60.));
#772=CARTESIAN_POINT('Origin',(-43.65,1.83568701867572E-48,-60.));
#773=CARTESIAN_POINT('',(-43.65,2.2178,-60.));
#774=CARTESIAN_POINT('',(-43.65,0.635,-60.));
#775=CARTESIAN_POINT('',(-44.15,2.7178,-60.));
#776=CARTESIAN_POINT('Origin',(-44.15,2.2178,-60.));
#777=CARTESIAN_POINT('',(-44.15,2.7178,-60.));
#778=CARTESIAN_POINT('Origin',(-45.4514,3.7164,0.));
#779=CARTESIAN_POINT('',(-45.9514,3.7164,60.));
#780=CARTESIAN_POINT('',(-45.4514,4.2164,60.));
#781=CARTESIAN_POINT('Origin',(-45.4514,3.7164,60.));
#782=CARTESIAN_POINT('',(-45.4514,4.2164,0.));
#783=CARTESIAN_POINT('',(-45.9514,3.7164,0.));
#784=CARTESIAN_POINT('Origin',(-45.4514,4.2164,0.));
#785=CARTESIAN_POINT('',(-43.1514000000003,4.2164,60.));
#786=CARTESIAN_POINT('',(-45.4514,4.2164,60.));
#787=CARTESIAN_POINT('',(-43.1514000000003,4.2164,0.));
#788=CARTESIAN_POINT('Origin',(-43.1514000000003,3.2163999999997,0.));
#789=CARTESIAN_POINT('',(-42.1514,3.2163999999997,60.));
#790=CARTESIAN_POINT('Origin',(-43.1514000000003,3.2163999999997,60.));
#791=CARTESIAN_POINT('',(-42.1514,3.2163999999997,0.));
#792=CARTESIAN_POINT('Origin',(-42.1514,3.2163999999997,0.));
#793=CARTESIAN_POINT('',(-42.1514,2.151,60.));
#794=CARTESIAN_POINT('',(-42.1514,3.2163999999997,60.));
#795=CARTESIAN_POINT('',(-42.1514,2.151,0.));
#796=CARTESIAN_POINT('Origin',(-41.6514,2.151,0.));
#797=CARTESIAN_POINT('',(-41.6514,1.651,60.));
#798=CARTESIAN_POINT('Origin',(-41.6514,2.151,60.));
#799=CARTESIAN_POINT('',(-41.6514,1.651,0.));
#800=CARTESIAN_POINT('Origin',(-41.6514,1.651,0.));
#801=CARTESIAN_POINT('',(41.6486,1.651,60.));
#802=CARTESIAN_POINT('',(-41.6514,1.651,60.));
#803=CARTESIAN_POINT('',(41.6486,1.651,0.));
#804=CARTESIAN_POINT('Origin',(41.6486,2.151,0.));
#805=CARTESIAN_POINT('',(42.1486,2.151,60.));
#806=CARTESIAN_POINT('Origin',(41.6486,2.151,60.));
#807=CARTESIAN_POINT('',(42.1486,2.151,0.));
#808=CARTESIAN_POINT('Origin',(42.1486,2.151,0.));
#809=CARTESIAN_POINT('',(42.1486,3.2163999999997,60.));
#810=CARTESIAN_POINT('',(42.1486,2.151,60.));
#811=CARTESIAN_POINT('',(42.1486,3.2163999999997,0.));
#812=CARTESIAN_POINT('Origin',(43.1486000000003,3.2163999999997,0.));
#813=CARTESIAN_POINT('',(43.1486000000003,4.2164,60.));
#814=CARTESIAN_POINT('Origin',(43.1486000000003,3.2163999999997,60.));
#815=CARTESIAN_POINT('',(43.1486000000003,4.2164,0.));
#816=CARTESIAN_POINT('Origin',(43.1486000000003,4.2164,0.));
#817=CARTESIAN_POINT('',(45.4486,4.2164,60.));
#818=CARTESIAN_POINT('',(43.1486000000003,4.2164,60.));
#819=CARTESIAN_POINT('',(45.4486,4.2164,0.));
#820=CARTESIAN_POINT('Origin',(45.4486,3.7164,0.));
#821=CARTESIAN_POINT('',(45.9486,3.7164,60.));
#822=CARTESIAN_POINT('Origin',(45.4486,3.7164,60.));
#823=CARTESIAN_POINT('',(45.9486,3.7164,0.));
#824=CARTESIAN_POINT('Origin',(45.9486,3.7164,0.));
#825=CARTESIAN_POINT('',(45.9486,3.2178,60.));
#826=CARTESIAN_POINT('',(45.9486,3.7164,60.));
#827=CARTESIAN_POINT('',(45.9486,3.2178,0.));
#828=CARTESIAN_POINT('Origin',(45.4486,3.2178,0.));
#829=CARTESIAN_POINT('',(45.4486,2.7178,60.));
#830=CARTESIAN_POINT('Origin',(45.4486,3.2178,60.));
#831=CARTESIAN_POINT('',(45.4486,2.7178,0.));
#832=CARTESIAN_POINT('Origin',(45.4486,2.7178,0.));
#833=CARTESIAN_POINT('',(44.15,2.7178,60.));
#834=CARTESIAN_POINT('',(45.4486,2.7178,60.));
#835=CARTESIAN_POINT('',(44.15,2.7178,0.));
#836=CARTESIAN_POINT('Origin',(44.15,2.2178,0.));
#837=CARTESIAN_POINT('',(43.65,2.2178,60.));
#838=CARTESIAN_POINT('Origin',(44.15,2.2178,60.));
#839=CARTESIAN_POINT('',(43.65,2.2178,0.));
#840=CARTESIAN_POINT('Origin',(43.65,2.2178,0.));
#841=CARTESIAN_POINT('',(43.65,0.635,60.));
#842=CARTESIAN_POINT('',(43.65,2.2178,60.));
#843=CARTESIAN_POINT('',(43.65,0.635,0.));
#844=CARTESIAN_POINT('Origin',(43.65,1.83568701867572E-48,0.));
#845=CARTESIAN_POINT('',(43.015,1.5803454619597E-14,60.));
#846=CARTESIAN_POINT('Origin',(43.65,1.83568701867572E-48,60.));
#847=CARTESIAN_POINT('',(43.015,1.5803454619597E-14,0.));
#848=CARTESIAN_POINT('Origin',(43.015,1.5803454619597E-14,0.));
#849=CARTESIAN_POINT('',(-43.015,1.83568701867572E-48,60.));
#850=CARTESIAN_POINT('',(43.015,1.5803454619597E-14,60.));
#851=CARTESIAN_POINT('',(-43.015,1.83568701867572E-48,0.));
#852=CARTESIAN_POINT('Origin',(-43.65,1.83568701867572E-48,0.));
#853=CARTESIAN_POINT('',(-43.65,0.635,60.));
#854=CARTESIAN_POINT('Origin',(-43.65,1.83568701867572E-48,60.));
#855=CARTESIAN_POINT('',(-43.65,0.635,0.));
#856=CARTESIAN_POINT('Origin',(-43.65,0.635,0.));
#857=CARTESIAN_POINT('',(-43.65,2.2178,60.));
#858=CARTESIAN_POINT('',(-43.65,0.635,60.));
#859=CARTESIAN_POINT('',(-43.65,2.2178,0.));
#860=CARTESIAN_POINT('Origin',(-44.15,2.2178,0.));
#861=CARTESIAN_POINT('',(-44.15,2.7178,60.));
#862=CARTESIAN_POINT('Origin',(-44.15,2.2178,60.));
#863=CARTESIAN_POINT('',(-44.15,2.7178,0.));
#864=CARTESIAN_POINT('Origin',(-44.15,2.7178,0.));
#865=CARTESIAN_POINT('',(-45.4514,2.7178,60.));
#866=CARTESIAN_POINT('',(-44.15,2.7178,60.));
#867=CARTESIAN_POINT('',(-45.4514,2.7178,0.));
#868=CARTESIAN_POINT('Origin',(-45.4514,3.2178,0.));
#869=CARTESIAN_POINT('',(-45.9514,3.2178,60.));
#870=CARTESIAN_POINT('Origin',(-45.4514,3.2178,60.));
#871=CARTESIAN_POINT('',(-45.9514,3.2178,0.));
#872=CARTESIAN_POINT('Origin',(-45.9514,3.2178,0.));
#873=CARTESIAN_POINT('',(-45.9514,3.2178,60.));
#874=CARTESIAN_POINT('Origin',(-0.00136784532047542,1.07229975519263,60.));
#875=CARTESIAN_POINT('',(7.19799220227914E-15,-30.51,-1.50488537562391E-44));
#876=UNCERTAINTY_MEASURE_WITH_UNIT(LENGTH_MEASURE(0.01),#882,
'DISTANCE_ACCURACY_VALUE',
'Maximum model space distance between geometric entities at asserted c
onnectivities');
#877=UNCERTAINTY_MEASURE_WITH_UNIT(LENGTH_MEASURE(0.01),#882,
'DISTANCE_ACCURACY_VALUE',
'Maximum model space distance between geometric entities at asserted c
onnectivities');
#878=UNCERTAINTY_MEASURE_WITH_UNIT(LENGTH_MEASURE(0.01),#882,
'DISTANCE_ACCURACY_VALUE',
'Maximum model space distance between geometric entities at asserted c
onnectivities');
#879=(
GEOMETRIC_REPRESENTATION_CONTEXT(3)
GLOBAL_UNCERTAINTY_ASSIGNED_CONTEXT((#876))
GLOBAL_UNIT_ASSIGNED_CONTEXT((#882,#884,#885))
REPRESENTATION_CONTEXT('','3D')
);
#880=(
GEOMETRIC_REPRESENTATION_CONTEXT(3)
GLOBAL_UNCERTAINTY_ASSIGNED_CONTEXT((#877))
GLOBAL_UNIT_ASSIGNED_CONTEXT((#882,#884,#885))
REPRESENTATION_CONTEXT('','3D')
);
#881=(
GEOMETRIC_REPRESENTATION_CONTEXT(3)
GLOBAL_UNCERTAINTY_ASSIGNED_CONTEXT((#878))
GLOBAL_UNIT_ASSIGNED_CONTEXT((#882,#884,#885))
REPRESENTATION_CONTEXT('','3D')
);
#882=(
LENGTH_UNIT()
NAMED_UNIT(*)
SI_UNIT(.MILLI.,.METRE.)
);
#883=(
LENGTH_UNIT()
NAMED_UNIT(*)
SI_UNIT($,.METRE.)
);
#884=(
NAMED_UNIT(*)
PLANE_ANGLE_UNIT()
SI_UNIT($,.RADIAN.)
);
#885=(
NAMED_UNIT(*)
SI_UNIT($,.STERADIAN.)
SOLID_ANGLE_UNIT()
);
#886=SHAPE_DEFINITION_REPRESENTATION(#888,#891);
#887=SHAPE_DEFINITION_REPRESENTATION(#889,#892);
#888=PRODUCT_DEFINITION_SHAPE('',$,#894);
#889=PRODUCT_DEFINITION_SHAPE('',$,#895);
#890=PRODUCT_DEFINITION_SHAPE($,$,#14);
#891=SHAPE_REPRESENTATION('',(#520,#572),#879);
#892=SHAPE_REPRESENTATION('',(#521),#880);
#893=PRODUCT_DEFINITION_CONTEXT('part definition',#901,'design');
#894=PRODUCT_DEFINITION('1455L1202','(Unsaved)',#896,#893);
#895=PRODUCT_DEFINITION('L Cap Extrusion 120mm','L Cap Extrusion 120mm',
#897,#893);
#896=PRODUCT_DEFINITION_FORMATION('',$,#903);
#897=PRODUCT_DEFINITION_FORMATION('',$,#904);
#898=PRODUCT_RELATED_PRODUCT_CATEGORY('(Unsaved)','(Unsaved)',(#903));
#899=PRODUCT_RELATED_PRODUCT_CATEGORY('L Cap Extrusion 120mm',
'L Cap Extrusion 120mm',(#904));
#900=APPLICATION_PROTOCOL_DEFINITION('international standard',
'automotive_design',2009,#901);
#901=APPLICATION_CONTEXT(
'Core Data for Automotive Mechanical Design Process');
#902=PRODUCT_CONTEXT('part definition',#901,'mechanical');
#903=PRODUCT('1455L1202','(Unsaved)',$,(#902));
#904=PRODUCT('L Cap Extrusion 120mm','L Cap Extrusion 120mm',$,(#902));
#905=PRESENTATION_STYLE_ASSIGNMENT((#907));
#906=PRESENTATION_STYLE_ASSIGNMENT((#908));
#907=SURFACE_STYLE_USAGE(.BOTH.,#909);
#908=SURFACE_STYLE_USAGE(.BOTH.,#910);
#909=SURFACE_SIDE_STYLE('',(#911));
#910=SURFACE_SIDE_STYLE('',(#912));
#911=SURFACE_STYLE_FILL_AREA(#913);
#912=SURFACE_STYLE_FILL_AREA(#914);
#913=FILL_AREA_STYLE('Steel - Satin',(#915));
#914=FILL_AREA_STYLE('Opaque(191,191,191)',(#916));
#915=FILL_AREA_STYLE_COLOUR('Steel - Satin',#917);
#916=FILL_AREA_STYLE_COLOUR('Opaque(191,191,191)',#918);
#917=COLOUR_RGB('Steel - Satin',0.627450980392157,0.627450980392157,0.627450980392157);
#918=COLOUR_RGB('Opaque(191,191,191)',0.749019607843137,0.749019607843137,
0.749019607843137);
ENDSEC;
END-ISO-10303-21;
